<?xml version="1.0" standalone="no"?>
<!DOCTYPE svg PUBLIC "-//W3C//DTD SVG 20010904//EN"
 "http://www.w3.org/TR/2001/REC-SVG-20010904/DTD/svg10.dtd">
<svg version="1.0" xmlns="http://www.w3.org/2000/svg"
 width="920.000000pt" height="768.000000pt" viewBox="0 0 920.000000 768.000000"
 preserveAspectRatio="xMidYMid meet">

<g transform="translate(0.000000,768.000000) scale(0.100000,-0.100000)"
fill="#000000" stroke="none">
<path d="M2225 5825 c-248 -46 -449 -227 -514 -465 -57 -205 -27 -391 89 -551
l31 -44 -535 -3 -536 -2 0 -548 0 -547 303 -910 304 -910 350 -3 350 -2 33 92
c17 51 35 99 39 106 4 7 22 -33 41 -93 l34 -105 765 2 764 3 39 110 c21 61 45
129 54 152 l16 43 73 0 73 0 53 -152 54 -153 863 -3 862 -2 0 41 c0 22 3 39 8
37 155 -78 147 -78 899 -78 687 0 766 4 877 42 155 54 295 176 365 319 56 114
74 193 74 314 1 140 -44 276 -117 359 -14 16 -26 33 -26 38 0 4 86 8 190 8
l190 0 0 920 0 920 -286 0 c-268 0 -286 1 -281 18 4 9 19 51 34 92 26 70 28
85 28 230 0 126 -4 165 -19 210 -99 287 -324 480 -609 519 -50 7 -309 11 -703
11 l-624 0 -2 -237 -3 -236 -80 234 -80 234 -1685 2 c-1346 1 -1699 -1 -1755
-12z m2223 -447 l-3 -153 -307 -3 -308 -2 0 -535 0 -535 -230 0 -230 0 0 535
0 535 -433 0 c-480 0 -465 2 -493 -67 -13 -31 -13 -38 6 -76 11 -23 85 -130
165 -237 163 -219 182 -260 170 -358 -17 -137 -92 -245 -207 -298 l-63 -29
-722 -3 -723 -3 0 153 0 153 587 -3 c544 -2 591 -1 623 15 45 23 59 60 41 111
-8 20 -79 132 -159 247 -80 116 -152 228 -160 250 -10 27 -12 64 -9 117 11
162 107 284 256 324 35 10 303 13 1124 13 l1078 1 -3 -152z m1034 45 c20 -60
81 -238 136 -398 55 -159 145 -422 201 -582 l100 -293 -192 0 -192 0 -51 148
-51 147 -295 3 -295 2 -50 -147 -50 -148 -192 -3 c-105 -1 -191 1 -191 5 0 8
170 538 336 1051 l105 322 322 0 323 0 36 -107z m1683 92 c167 -44 287 -178
316 -355 32 -189 -81 -386 -262 -456 -24 -10 -45 -18 -47 -19 -9 -6 213 -212
240 -222 22 -8 120 -12 301 -12 l267 -1 0 -150 0 -150 -420 0 c-334 0 -427 3
-453 14 -31 13 -113 86 -376 335 l-131 123 0 -236 0 -236 -230 0 -230 0 0 690
0 690 483 0 c403 0 493 -3 542 -15z m-4105 -692 l0 -98 -33 61 c-18 34 -43 74
-55 89 -12 15 -22 30 -22 34 0 3 25 7 55 9 l55 2 0 -97z m1212 77 c-1 -8 -31
-103 -66 -210 l-64 -195 -1 210 -1 210 68 0 c54 0 66 -3 64 -15z m-1212 -835
l0 -225 -277 1 c-265 1 -275 2 -213 15 86 19 211 80 285 141 70 57 157 174
182 244 10 27 19 49 20 49 2 0 3 -101 3 -225z m2206 -72 l53 -153 -179 0
c-105 0 -180 4 -180 9 0 6 13 43 28 83 15 40 39 106 52 146 l25 73 74 -3 73
-3 54 -152z m1702 -103 c33 -16 93 -35 135 -43 l77 -12 -68 -13 c-111 -21
-224 -84 -318 -177 -45 -44 -96 -106 -114 -139 l-33 -58 -15 28 c-29 57 -122
162 -184 209 -97 73 -205 122 -319 144 -28 6 103 9 364 10 l407 1 0 40 c0 22
2 40 5 40 2 0 31 -13 63 -30z m-2219 -467 l-1 -418 -134 400 c-74 220 -137
408 -140 418 -5 16 6 17 135 17 l141 0 -1 -417z m-3140 -181 c52 -158 96 -291
99 -296 4 -8 81 195 178 472 l39 112 217 0 216 0 99 -295 c53 -162 100 -289
104 -282 4 7 49 139 100 294 l94 283 198 0 c108 0 197 -3 197 -7 0 -4 -102
-315 -227 -690 l-228 -683 -130 0 -130 0 -54 158 c-183 528 -240 685 -245 672
-3 -8 -68 -197 -145 -420 l-139 -405 -132 0 -132 0 -229 685 c-125 377 -228
686 -229 688 0 1 87 2 193 2 l192 0 94 -288z m2869 -402 l230 -690 -193 0
-193 0 -53 155 -53 155 -292 0 -291 0 -54 -155 -53 -155 -183 0 c-101 0 -183
3 -183 6 0 7 315 989 401 1252 l41 122 323 0 323 0 230 -690z m1654 669 c198
-66 323 -268 290 -466 -24 -144 -112 -263 -241 -325 l-68 -33 84 -95 c46 -52
98 -103 116 -112 29 -16 72 -18 473 -18 l441 0 26 26 c33 33 42 75 24 111 -8
15 -82 104 -164 196 -185 210 -200 230 -214 281 -15 57 -6 160 22 230 30 76
107 157 186 194 l58 27 408 3 407 3 0 -151 0 -150 -251 0 c-283 0 -305 -4
-334 -67 -30 -62 -18 -84 165 -313 153 -193 170 -218 181 -269 14 -68 2 -164
-30 -232 -31 -66 -95 -127 -170 -163 l-66 -31 -705 -3 -706 -3 -42 23 c-23 13
-145 121 -272 241 l-230 218 0 -241 0 -240 -230 0 -230 0 0 690 0 690 505 0
c485 0 508 -1 567 -21z m570 -716 c26 -23 22 -33 -12 -33 -31 0 -35 6 -24 34
8 20 13 20 36 -1z"/>
<path d="M5117 5300 c-3 -8 -43 -127 -88 -265 -45 -137 -84 -256 -87 -262 -3
-10 36 -13 177 -13 140 0 181 3 181 13 0 28 -178 541 -183 527z"/>
<path d="M6600 5068 l0 -153 198 1 c220 0 252 8 295 68 31 44 30 129 -2 173
-41 55 -78 63 -296 63 l-195 0 0 -152z"/>
<path d="M3832 3041 c-49 -148 -87 -272 -84 -275 7 -7 348 -7 355 0 4 5 -168
532 -177 541 -2 2 -44 -117 -94 -266z"/>
<path d="M5520 3076 l0 -156 200 0 c182 0 204 2 241 20 59 30 81 72 76 142 -2
44 -9 64 -28 84 -51 55 -68 58 -286 62 l-203 4 0 -156z"/>
</g>
</svg>
